<?xml version="1.0" encoding="UTF-8"?>
<svg id="Layer_2" data-name="Layer 2" xmlns="http://www.w3.org/2000/svg" viewBox="0 0 338.57 179.21">
  <defs>
    <style>
      .cls-1 {
        fill: none;
        stroke: #231f20;
        stroke-linecap: round;
        stroke-linejoin: round;
        stroke-width: 2px;
      }
    </style>
  </defs>
  <g id="Copper">
    <path class="cls-1" d="M8.1,1.68S1.93,153.22,1,175.45c162.5,5.76,313.89,1.34,336.57-2.67,0,0-4.32-119.08-4.32-125.41-.05-4.53-5.25-4.99-10.55-6.53,0,0-2.26-1.85-3.29-3.29s2.31-4.06-8.23-10.29c1.29-1.54,1.49-3.14.62-5.45,1.18-1.7,6.62-2.83,6.79-7.92.15-4.63-4.84-11.88-9.52-10.7s-4.48,3.09-6.64-.21c-1.18-2.26-4.4-2.01-5.38-1.9S103.31,7.96,8.1,1.68Z"/>
  </g>
</svg>